<?xml version="1.0" encoding="UTF-8"?>
<svg version="1.1" xmlns="http://www.w3.org/2000/svg" width="28" height="28">
<path d="M0 0 C9.24 0 18.48 0 28 0 C28 9.24 28 18.48 28 28 C18.76 28 9.52 28 0 28 C0 18.76 0 9.52 0 0 Z " fill="#583722" transform="translate(0,0)"/>
<path d="M0 0 C0.928125 0.20625 1.85625 0.4125 2.8125 0.625 C2.4825 1.615 2.1525 2.605 1.8125 3.625 C0.4925 3.625 -0.8275 3.625 -2.1875 3.625 C-2.1875 4.945 -2.1875 6.265 -2.1875 7.625 C-0.5375 7.955 1.1125 8.285 2.8125 8.625 C2.8125 9.285 2.8125 9.945 2.8125 10.625 C0.0625 11.375 0.0625 11.375 -3.1875 11.625 C-5.625 10.0625 -5.625 10.0625 -7.1875 7.625 C-7.125 4.5 -7.125 4.5 -6.1875 1.625 C-3.1875 -0.375 -3.1875 -0.375 0 0 Z " fill="#EAE7DA" transform="translate(10.1875,8.375)"/>
<path d="M0 0 C0.33 1.32 0.66 2.64 1 4 C-0.65 3.67 -2.3 3.34 -4 3 C-4 4.65 -4 6.3 -4 8 C-2.35 8 -0.7 8 1 8 C1 8.99 1 9.98 1 11 C-4.42465753 12.3260274 -4.42465753 12.3260274 -6.875 10.9375 C-8.49933741 8.14003001 -8.39704314 6.17634515 -8 3 C-5.87141064 -0.36093057 -3.79035926 -0.30732643 0 0 Z " fill="#F3F2E6" transform="translate(23,8)"/>
<path d="M0 0 C2.33944736 0.28730055 4.6739143 0.61936779 7 1 C7.33 2.98 7.66 4.96 8 7 C5.36 6.67 2.72 6.34 0 6 C-0.38218767 4.34385343 -0.71395102 2.67542976 -1 1 C-0.67 0.67 -0.34 0.34 0 0 Z " fill="#61412C" transform="translate(8,11)"/>
<path d="M0 0 C0.33 1.32 0.66 2.64 1 4 C-0.65 3.67 -2.3 3.34 -4 3 C-4.33 3.66 -4.66 4.32 -5 5 C-5.33 4.67 -5.66 4.34 -6 4 C-6.33 5.65 -6.66 7.3 -7 9 C-7.33 9 -7.66 9 -8 9 C-8.36190476 3.57142857 -8.36190476 3.57142857 -6.8125 1.125 C-4.43963721 -0.34781139 -2.74086056 -0.22223194 0 0 Z " fill="#E9E6D9" transform="translate(23,8)"/>
</svg>
